HIERARCHY
ROOT mixamorig:Hips
{
	OFFSET 0.000000 201.639420 0.000000
	CHANNELS 6 Xposition Yposition Zposition Xrotation Yrotation Zrotation
	JOINT mixamorig:Spine
	{
		OFFSET 0.006200 19.524994 -2.481800
		CHANNELS 3 Xrotation Yrotation Zrotation
		JOINT mixamorig:Spine1
		{
			OFFSET -0.000900 22.835007 -2.825400
			CHANNELS 3 Xrotation Yrotation Zrotation
			JOINT mixamorig:Spine2
			{
				OFFSET -0.020600 26.552490 -3.193300
				CHANNELS 3 Xrotation Yrotation Zrotation
				JOINT mixamorig:Neck
				{
					OFFSET -0.060000 30.701813 1.352200
					CHANNELS 3 Xrotation Yrotation Zrotation
					JOINT mixamorig:Head
					{
						OFFSET -0.087200 22.547607 3.670900
						CHANNELS 3 Xrotation Yrotation Zrotation
						JOINT mixamorig:HeadTop_End
						{
							OFFSET -0.830600 40.355194 7.893500
							CHANNELS 3 Xrotation Yrotation Zrotation
							End Site
							{
								OFFSET 0.000000 30.592346 0.000000
							}
						}
						JOINT mixamorig:RightEye
						{
							OFFSET -6.302100 18.118591 16.197100
							CHANNELS 3 Xrotation Yrotation Zrotation
							End Site
							{
								OFFSET 0.000000 30.592346 0.000000
							}
						}
						JOINT mixamorig:LeftEye
						{
							OFFSET 6.741500 18.382690 16.401899
							CHANNELS 3 Xrotation Yrotation Zrotation
							End Site
							{
								OFFSET 0.000000 30.592346 0.000000
							}
						}
					}
				}
				JOINT mixamorig:LeftShoulder
				{
					OFFSET 11.924900 18.230499 1.425400
					CHANNELS 3 Xrotation Yrotation Zrotation
					JOINT mixamorig:LeftArm
					{
						OFFSET 25.435989 -0.697632 -5.229300
						CHANNELS 3 Xrotation Yrotation Zrotation
						JOINT mixamorig:LeftForeArm
						{
							OFFSET 54.684776 0.000000 0.000000
							CHANNELS 3 Xrotation Yrotation Zrotation
							JOINT mixamorig:LeftHand
							{
								OFFSET 55.098175 0.000000 0.000000
								CHANNELS 3 Xrotation Yrotation Zrotation
								JOINT mixamorig:LeftHandMiddle1
								{
									OFFSET 23.369751 0.000000 0.000000
									CHANNELS 3 Xrotation Yrotation Zrotation
									JOINT mixamorig:LeftHandMiddle2
									{
										OFFSET 6.378677 0.000000 0.000000
										CHANNELS 3 Xrotation Yrotation Zrotation
										JOINT mixamorig:LeftHandMiddle3
										{
											OFFSET 6.148331 0.000000 0.000000
											CHANNELS 3 Xrotation Yrotation Zrotation
											JOINT mixamorig:LeftHandMiddle4
											{
												OFFSET 6.582504 0.000000 0.000000
												CHANNELS 3 Xrotation Yrotation Zrotation
												End Site
												{
													OFFSET -1.168900 6.395691 1.028606
												}
											}
										}
									}
								}
								JOINT mixamorig:LeftHandThumb1
								{
									OFFSET 7.235672 -3.848206 5.434273
									CHANNELS 3 Xrotation Yrotation Zrotation
									JOINT mixamorig:LeftHandThumb2
									{
										OFFSET 6.568451 -3.792297 3.792300
										CHANNELS 3 Xrotation Yrotation Zrotation
										JOINT mixamorig:LeftHandThumb3
										{
											OFFSET 6.063080 -3.500519 3.500518
											CHANNELS 3 Xrotation Yrotation Zrotation
											JOINT mixamorig:LeftHandThumb4
											{
												OFFSET 4.793182 -2.767334 2.767349
												CHANNELS 3 Xrotation Yrotation Zrotation
												End Site
												{
													OFFSET 0.101639 6.054260 1.275483
												}
											}
										}
									}
								}
								JOINT mixamorig:LeftHandIndex1
								{
									OFFSET 23.101074 -0.309540 4.992809
									CHANNELS 3 Xrotation Yrotation Zrotation
									JOINT mixamorig:LeftHandIndex2
									{
										OFFSET 6.226883 0.000000 0.000000
										CHANNELS 3 Xrotation Yrotation Zrotation
										JOINT mixamorig:LeftHandIndex3
										{
											OFFSET 6.094330 0.000000 0.000000
											CHANNELS 3 Xrotation Yrotation Zrotation
											JOINT mixamorig:LeftHandIndex4
											{
												OFFSET 5.482605 0.000000 0.000000
												CHANNELS 3 Xrotation Yrotation Zrotation
												End Site
												{
													OFFSET -1.427902 5.233032 0.797164
												}
											}
										}
									}
								}
								JOINT mixamorig:LeftHandRing1
								{
									OFFSET 22.299240 0.021149 -3.964172
									CHANNELS 3 Xrotation Yrotation Zrotation
									JOINT mixamorig:LeftHandRing2
									{
										OFFSET 6.321869 0.000000 0.000000
										CHANNELS 3 Xrotation Yrotation Zrotation
										JOINT mixamorig:LeftHandRing3
										{
											OFFSET 5.899796 0.000000 0.000000
											CHANNELS 3 Xrotation Yrotation Zrotation
											JOINT mixamorig:LeftHandRing4
											{
												OFFSET 6.517899 0.000000 0.000000
												CHANNELS 3 Xrotation Yrotation Zrotation
												End Site
												{
													OFFSET -1.637299 6.232208 0.980890
												}
											}
										}
									}
								}
								JOINT mixamorig:LeftHandPinky1
								{
									OFFSET 20.463791 -0.302338 -8.562233
									CHANNELS 3 Xrotation Yrotation Zrotation
									JOINT mixamorig:LeftHandPinky2
									{
										OFFSET 6.908646 0.000000 0.000000
										CHANNELS 3 Xrotation Yrotation Zrotation
										JOINT mixamorig:LeftHandPinky3
										{
											OFFSET 4.622849 0.000000 0.000000
											CHANNELS 3 Xrotation Yrotation Zrotation
											JOINT mixamorig:LeftHandPinky4
											{
												OFFSET 5.216080 0.000000 0.000000
												CHANNELS 3 Xrotation Yrotation Zrotation
												End Site
												{
													OFFSET -0.606308 5.116241 0.814926
												}
											}
										}
									}
								}
							}
						}
					}
				}
				JOINT mixamorig:RightShoulder
				{
					OFFSET -12.001300 18.284088 1.348900
					CHANNELS 3 Xrotation Yrotation Zrotation
					JOINT mixamorig:RightArm
					{
						OFFSET -25.308500 -0.751312 -5.164599
						CHANNELS 3 Xrotation Yrotation Zrotation
						JOINT mixamorig:RightForeArm
						{
							OFFSET -54.684429 0.000000 0.000000
							CHANNELS 3 Xrotation Yrotation Zrotation
							JOINT mixamorig:RightHand
							{
								OFFSET -55.150291 0.000000 0.000000
								CHANNELS 3 Xrotation Yrotation Zrotation
								JOINT mixamorig:RightHandMiddle1
								{
									OFFSET -23.317566 0.000000 0.000000
									CHANNELS 3 Xrotation Yrotation Zrotation
									JOINT mixamorig:RightHandMiddle2
									{
										OFFSET -6.378403 0.000000 0.000000
										CHANNELS 3 Xrotation Yrotation Zrotation
										JOINT mixamorig:RightHandMiddle3
										{
											OFFSET -6.148193 0.000000 0.000000
											CHANNELS 3 Xrotation Yrotation Zrotation
											JOINT mixamorig:RightHandMiddle4
											{
												OFFSET -6.583389 0.000000 0.000000
												CHANNELS 3 Xrotation Yrotation Zrotation
												End Site
												{
													OFFSET 1.171692 6.395905 1.029786
												}
											}
										}
									}
								}
								JOINT mixamorig:RightHandThumb1
								{
									OFFSET -7.190521 -3.860474 5.435846
									CHANNELS 3 Xrotation Yrotation Zrotation
									JOINT mixamorig:RightHandThumb2
									{
										OFFSET -6.567429 -3.791718 3.791708
										CHANNELS 3 Xrotation Yrotation Zrotation
										JOINT mixamorig:RightHandThumb3
										{
											OFFSET -6.062469 -3.500153 3.500166
											CHANNELS 3 Xrotation Yrotation Zrotation
											JOINT mixamorig:RightHandThumb4
											{
												OFFSET -4.792618 -2.767029 2.767022
												CHANNELS 3 Xrotation Yrotation Zrotation
												End Site
												{
													OFFSET -0.100327 6.053253 1.276754
												}
											}
										}
									}
								}
								JOINT mixamorig:RightHandIndex1
								{
									OFFSET -23.048981 -0.310791 4.992554
									CHANNELS 3 Xrotation Yrotation Zrotation
									JOINT mixamorig:RightHandIndex2
									{
										OFFSET -6.227539 0.000000 0.000000
										CHANNELS 3 Xrotation Yrotation Zrotation
										JOINT mixamorig:RightHandIndex3
										{
											OFFSET -6.095047 0.000000 0.000000
											CHANNELS 3 Xrotation Yrotation Zrotation
											JOINT mixamorig:RightHandIndex4
											{
												OFFSET -5.484772 0.000000 0.000000
												CHANNELS 3 Xrotation Yrotation Zrotation
												End Site
												{
													OFFSET 1.420593 5.237305 0.797056
												}
											}
										}
									}
								}
								JOINT mixamorig:RightHandRing1
								{
									OFFSET -22.246323 0.020569 -3.963762
									CHANNELS 3 Xrotation Yrotation Zrotation
									JOINT mixamorig:RightHandRing2
									{
										OFFSET -6.322128 0.000000 0.000000
										CHANNELS 3 Xrotation Yrotation Zrotation
										JOINT mixamorig:RightHandRing3
										{
											OFFSET -5.900024 0.000000 0.000000
											CHANNELS 3 Xrotation Yrotation Zrotation
											JOINT mixamorig:RightHandRing4
											{
												OFFSET -6.518356 0.000000 0.000000
												CHANNELS 3 Xrotation Yrotation Zrotation
												End Site
												{
													OFFSET 1.636398 6.232697 0.982186
												}
											}
										}
									}
								}
								JOINT mixamorig:RightHandPinky1
								{
									OFFSET -20.411011 -0.303314 -8.561701
									CHANNELS 3 Xrotation Yrotation Zrotation
									JOINT mixamorig:RightHandPinky2
									{
										OFFSET -6.907349 0.000000 0.000000
										CHANNELS 3 Xrotation Yrotation Zrotation
										JOINT mixamorig:RightHandPinky3
										{
											OFFSET -4.623840 0.000000 0.000000
											CHANNELS 3 Xrotation Yrotation Zrotation
											JOINT mixamorig:RightHandPinky4
											{
												OFFSET -5.218353 0.000000 0.000000
												CHANNELS 3 Xrotation Yrotation Zrotation
												End Site
												{
													OFFSET 0.602097 5.118835 0.816273
												}
											}
										}
									}
								}
							}
						}
					}
				}
			}
		}
	}
	JOINT mixamorig:LeftUpLeg
	{
		OFFSET 18.168400 -13.561905 -0.039000
		CHANNELS 3 Xrotation Yrotation Zrotation
		JOINT mixamorig:LeftLeg
		{
			OFFSET 0.577358 -80.825211 -3.695000
			CHANNELS 3 Xrotation Yrotation Zrotation
			JOINT mixamorig:LeftFoot
			{
				OFFSET -0.577356 -83.370262 -6.520700
				CHANNELS 3 Xrotation Yrotation Zrotation
				JOINT mixamorig:LeftToeBase
				{
					OFFSET 0.750401 -20.798306 25.135401
					CHANNELS 3 Xrotation Yrotation Zrotation
					JOINT mixamorig:LeftToe_End
					{
						OFFSET -0.000500 0.001200 19.917799
						CHANNELS 3 Xrotation Yrotation Zrotation
						End Site
						{
							OFFSET 0.000000 19.917805 0.000000
						}
					}
				}
			}
		}
	}
	JOINT mixamorig:RightUpLeg
	{
		OFFSET -18.162500 -13.585098 -0.041000
		CHANNELS 3 Xrotation Yrotation Zrotation
		JOINT mixamorig:RightLeg
		{
			OFFSET -0.595024 -80.945297 -3.631900
			CHANNELS 3 Xrotation Yrotation Zrotation
			JOINT mixamorig:RightFoot
			{
				OFFSET 0.595024 -83.218193 -6.561200
				CHANNELS 3 Xrotation Yrotation Zrotation
				JOINT mixamorig:RightToeBase
				{
					OFFSET -0.753601 -20.807106 25.115000
					CHANNELS 3 Xrotation Yrotation Zrotation
					JOINT mixamorig:RightToe_End
					{
						OFFSET 0.000299 0.001700 19.918200
						CHANNELS 3 Xrotation Yrotation Zrotation
						End Site
						{
							OFFSET 0.000000 19.918203 0.000000
						}
					}
				}
			}
		}
	}
}
MOTION
Frames: 4
Frame Time: 0.033333
1.184319 431.072205 3.078110 27.205245 -7.724033 -10.549917 1.279237 -2.690875 8.847678 -9.235038 0.145765 4.418308 -14.387664 0.409354 5.556177 -12.481938 2.968046 -0.868910 -6.519664 4.167144 3.024717 -0.000002 0.000000 -0.000000 -0.000002 0.000000 -0.000000 -0.000002 0.000000 -0.000000 -56.844014 -39.646755 -9.059635 -26.675676 -16.097830 -17.584971 0.000007 -63.284018 0.000001 -80.489299 38.772771 6.912461 10.076273 7.885547 -94.685867 5.969416 5.849850 -91.161182 6.090582 5.846166 -92.350312 -0.000001 -0.000003 0.000004 30.206337 -15.498512 -15.449784 26.188651 50.772430 -5.018369 -5.852587 43.344182 39.782112 0.000001 -0.000001 0.000003 -6.606139 9.133933 -93.907117 5.968972 5.849883 -91.156797 6.091770 5.846119 -92.361916 -0.000002 0.000001 -0.000000 10.070088 7.886073 -94.685608 5.973406 5.849815 -91.200244 6.081475 5.846522 -92.260747 0.000000 -0.000001 0.000001 10.130267 7.893563 -94.498392 5.969085 5.849869 -91.157870 6.427839 5.822681 -95.666833 -0.000002 -0.000003 -0.000002 2.145357 52.607664 -33.591823 -84.201595 37.064004 26.789670 -0.000024 31.374877 0.000004 -59.334270 -29.345536 -14.881874 -0.303162 -6.836843 88.802643 4.362919 -4.647886 86.373500 4.387284 -4.649361 86.674281 0.000005 -0.000001 -0.000000 72.536281 22.519986 -20.951351 28.000289 -27.153284 26.005587 25.151729 -20.650479 23.800884 -0.000001 0.000001 -0.000000 -0.268488 -5.372004 88.806051 4.363758 -4.647906 86.384162 4.389485 -4.649474 86.701397 -0.000005 0.000001 -0.000000 -0.309945 -6.836699 88.802370 4.364981 -4.648020 86.399017 4.390483 -4.649528 86.713807 0.000001 -0.000000 0.000001 -0.309955 -6.836678 88.802363 4.364316 -4.647965 86.390924 4.381342 -4.649009 86.601218 0.000003 -0.000000 0.000001 4.989568 14.578381 17.856531 35.932618 -8.692432 3.291704 39.017042 -10.357712 -8.467319 29.308871 -0.000001 0.000001 0.000001 0.000000 0.000000 9.703368 -22.503407 -19.542276 78.591360 2.533994 -0.078878 38.176769 1.771102 -8.560798 23.258978 -0.000002 -0.000015 0.000000 0.000000 0.000000 
1.816757 420.041626 16.706184 26.256306 -7.680987 -7.360786 1.212524 -1.794930 6.401628 -7.483296 0.173054 3.516366 -11.736177 0.431060 4.463766 -11.686190 2.903566 -0.738085 -5.189181 4.413522 2.402526 0.000001 0.000000 -0.000000 0.000001 0.000000 -0.000000 0.000001 0.000000 -0.000000 -54.804642 -39.176838 -7.555452 -31.864277 -22.358194 -13.704449 0.000022 -60.127747 0.000026 -82.980665 40.297727 6.905643 10.040861 7.911794 -94.319776 6.002585 5.849098 -91.486648 6.102514 5.845672 -92.467374 0.000002 0.000002 0.000002 30.244948 -15.569314 -15.879346 25.348111 51.433647 -4.451174 -5.724321 43.006604 39.612324 0.000000 0.000002 0.000001 -6.432028 8.923018 -93.521122 5.986980 5.849481 -91.333570 6.080067 5.846579 -92.246937 -0.000002 0.000000 0.000000 10.034837 7.912177 -94.321101 6.004831 5.849041 -91.508586 6.088412 5.846230 -92.329049 -0.000001 -0.000002 0.000002 10.025368 8.328917 -94.074012 5.999453 5.849184 -91.455891 6.451688 5.820276 -95.901996 0.000000 -0.000004 0.000007 5.007154 54.270112 -37.933969 -82.688442 40.082159 17.695060 0.000004 30.871024 -0.000000 -62.830412 -32.052534 -15.941527 -0.330787 -6.806381 88.453941 4.378035 -4.648821 86.560244 4.383917 -4.649159 86.632835 -0.000001 -0.000000 -0.000000 72.482801 22.939219 -20.948031 28.000296 -27.153280 26.005576 24.893936 -20.385142 23.576795 -0.000002 -0.000003 0.000001 -0.288091 -5.233143 88.386725 4.379288 -4.648859 86.575742 4.384362 -4.649187 86.638122 -0.000001 -0.000001 -0.000001 -0.325818 -6.805648 88.444010 4.382757 -4.649106 86.618478 4.382140 -4.649029 86.610835 0.000004 0.000000 0.000001 -0.322333 -7.171886 88.418691 4.382300 -4.649067 86.612775 4.364063 -4.647947 86.387809 -0.000003 0.000001 -0.000001 3.325922 14.387469 17.082124 37.984120 -8.201012 2.528773 36.768749 -8.534636 -10.270839 26.705478 0.000002 -0.000002 -0.000002 0.000000 0.000000 9.450312 -21.039184 -18.498531 77.356865 4.168262 -1.187460 38.891616 4.510140 -1.256420 19.812528 0.000000 -0.000000 -0.000000 -0.000000 0.000000 
2.043315 410.615906 30.330246 25.461279 -7.781683 -4.229612 0.920470 -0.872283 4.163408 -5.804381 0.212998 2.772903 -9.028836 0.426803 3.497725 -10.859480 2.836955 -0.602980 -3.827320 4.739098 1.743307 0.000000 -0.000000 -0.000000 0.000000 -0.000000 -0.000000 0.000000 -0.000000 -0.000000 -52.738233 -38.673296 -6.080040 -35.879933 -26.030870 -9.790401 0.000040 -60.509650 0.000041 -86.575373 41.512401 8.483129 10.010207 7.934229 -94.004057 6.065767 5.847123 -92.106617 6.151685 5.843358 -92.950269 -0.000000 -0.000003 0.000005 30.257205 -15.626462 -16.383997 24.461899 52.315270 -3.838871 -5.646640 42.844096 39.509106 0.000002 0.000004 0.000003 -6.220385 8.753434 -93.181518 6.000329 5.849152 -91.464532 6.069149 5.847010 -92.139914 -0.000000 -0.000001 0.000003 10.003865 7.934802 -94.002241 6.063464 5.847218 -92.083845 6.132166 5.844315 -92.758607 -0.000002 0.000000 0.000001 9.913500 8.748864 -93.667138 6.056016 5.847474 -92.010899 6.514765 5.813439 -96.524500 0.000000 -0.000000 0.000005 4.525190 52.982594 -37.574759 -81.992473 46.352823 12.666634 0.000005 29.369708 -0.000015 -66.938040 -33.488257 -17.496774 -0.349608 -6.775098 88.094469 4.389218 -4.649481 86.698098 4.383457 -4.649124 86.627030 0.000003 0.000000 -0.000000 72.483921 23.283232 -20.977850 28.000284 -27.153257 26.005580 24.651411 -20.148769 23.362403 -0.000001 -0.000003 0.000001 -0.309718 -5.135066 87.923085 4.393415 -4.649683 86.749959 4.381876 -4.649041 86.607454 0.000004 -0.000001 0.000001 -0.342024 -6.771986 88.055243 4.400016 -4.650087 86.831177 4.373781 -4.648523 86.507768 0.000003 -0.000000 0.000000 -0.301950 -7.517524 87.980466 4.399286 -4.650035 86.822366 4.347558 -4.646878 86.184037 0.000003 -0.000001 0.000000 0.609207 14.149401 16.798650 40.056006 -6.536859 1.261943 36.724442 -8.498821 -10.293891 21.391295 0.000001 -0.000000 0.000000 -0.000000 -0.000000 7.580714 -19.030227 -17.218564 76.793292 5.171844 -1.674545 36.898331 7.152351 5.720482 16.310463 -0.000001 -0.000006 0.000000 -0.000001 0.000000 
1.982157 401.354065 45.494770 24.373557 -8.113632 -1.154749 0.640040 0.081428 1.490221 -4.106940 0.134845 1.635540 -6.283836 0.308986 2.125178 -10.007569 2.768607 -0.464400 -2.432757 5.132400 1.052339 0.000000 -0.000000 0.000000 0.000000 -0.000000 0.000000 0.000000 -0.000000 0.000000 -50.651508 -38.134008 -4.638714 -40.038627 -31.769092 -6.837768 -0.000008 -60.456805 0.000023 -90.374222 43.186070 11.135817 9.983947 7.953241 -93.734750 6.156282 5.843124 -92.995430 6.234898 5.838497 -93.767801 -0.000000 0.000001 0.000001 30.245690 -15.664510 -16.959862 23.515585 53.397111 -3.160418 -5.611175 42.843000 39.461845 0.000000 -0.000005 0.000002 -5.974844 8.622222 -92.884699 6.009375 5.848906 -91.553201 6.058990 5.847370 -92.040262 -0.000003 -0.000000 0.000004 9.976877 7.954305 -93.725468 6.146823 5.843605 -92.902409 6.209513 5.840089 -93.518533 -0.000002 0.000000 0.000005 9.795394 9.154569 -93.276205 6.136392 5.844113 -92.799998 6.613637 5.801340 -97.501572 -0.000002 0.000000 -0.000000 1.427448 49.535892 -32.881248 -82.151309 53.656863 8.435584 -0.000004 28.642077 -0.000005 -72.469243 -34.993716 -19.591899 -0.366544 -6.742947 87.724839 4.396739 -4.649915 86.790824 4.385649 -4.649273 86.654166 0.000001 -0.000000 -0.000002 72.535530 23.557857 -21.039356 28.000313 -27.153287 26.005582 24.422772 -19.939170 23.156590 0.000001 -0.000001 -0.000002 -0.333920 -5.074550 87.418471 4.406240 -4.650397 86.908188 4.381833 -4.649048 86.606908 -0.000000 -0.000001 -0.000001 -0.358436 -6.735892 87.638512 4.416755 -4.650988 87.037695 4.365433 -4.648007 86.404680 0.000001 0.000000 0.000001 -0.252915 -7.873746 87.492421 4.415369 -4.650898 87.020688 4.331763 -4.645801 85.989131 -0.000003 0.000000 0.000001 -2.113151 14.002911 16.164059 42.092434 -5.422299 0.532928 36.633887 -8.171166 -11.261067 17.687454 -0.000003 0.000003 -0.000003 0.000000 -0.000000 5.854367 -16.168620 -15.239264 75.018263 5.417583 -1.945196 33.793942 8.912015 13.041868 12.848639 0.000000 -0.000001 -0.000003 0.000000 -0.000001 
